HIERARCHY
ROOT reference
{
  OFFSET 0 0 0
  CHANNELS 6 Xposition Yposition Zposition Zrotation Xrotation Yrotation
  JOINT Hips
  {
    OFFSET -10.3009 76.4069 58.5783
    CHANNELS 6 Xposition Yposition Zposition Zrotation Xrotation Yrotation
    JOINT Spine
    {
      OFFSET 0 7.57377 0
      CHANNELS 6 Xposition Yposition Zposition Zrotation Xrotation Yrotation
      JOINT Spine1
      {
        OFFSET 0 21.6353 0
        CHANNELS 6 Xposition Yposition Zposition Zrotation Xrotation Yrotation
        JOINT Neck
        {
          OFFSET 0 21.5464 1.95876
          CHANNELS 6 Xposition Yposition Zposition Zrotation Xrotation Yrotation
          JOINT Head
          {
            OFFSET 0 12.9308 -1.84726
            CHANNELS 6 Xposition Yposition Zposition Zrotation Xrotation Yrotation
            End Site
            {
              OFFSET 0 23.0907 0
            }
          }
        }
        JOINT LeftShoulder
        {
          OFFSET 3.70822 19.5981 -0.368577
          CHANNELS 6 Xposition Yposition Zposition Zrotation Xrotation Yrotation
          JOINT LeftArm
          {
            OFFSET 11.1726 0 0
            CHANNELS 6 Xposition Yposition Zposition Zrotation Xrotation Yrotation
            JOINT LeftForeArm
            {
              OFFSET 28.6421 0 0
              CHANNELS 6 Xposition Yposition Zposition Zrotation Xrotation Yrotation
              JOINT LeftHand
              {
                OFFSET 23.9346 0 0
                CHANNELS 6 Xposition Yposition Zposition Zrotation Xrotation Yrotation
                End Site
                {
                  OFFSET 13.8545 0 0
                }
              }
            }
          }
        }
        JOINT RightShoulder
        {
          OFFSET -3.63664 19.5981 -0.368577
          CHANNELS 6 Xposition Yposition Zposition Zrotation Xrotation Yrotation
          JOINT RightArm
          {
            OFFSET -11.1726 0 0
            CHANNELS 6 Xposition Yposition Zposition Zrotation Xrotation Yrotation
            JOINT RightForeArm
            {
              OFFSET -28.6421 0 0
              CHANNELS 6 Xposition Yposition Zposition Zrotation Xrotation Yrotation
              JOINT RightHand
              {
                OFFSET -23.9346 0 0
                CHANNELS 6 Xposition Yposition Zposition Zrotation Xrotation Yrotation
                End Site
                {
                  OFFSET -13.8545 0 0
                }
              }
            }
          }
        }
      }
    }
    JOINT LeftUpLeg
    {
      OFFSET 9.2363 0 0
      CHANNELS 6 Xposition Yposition Zposition Zrotation Xrotation Yrotation
      JOINT LeftLeg
      {
        OFFSET 0 -40.7061 0
        CHANNELS 6 Xposition Yposition Zposition Zrotation Xrotation Yrotation
        JOINT LeftFoot
        {
          OFFSET 0 -40.9975 0
          CHANNELS 6 Xposition Yposition Zposition Zrotation Xrotation Yrotation
          JOINT LeftToeBase
          {
            OFFSET 0 -6.00359 13.8545
            CHANNELS 6 Xposition Yposition Zposition Zrotation Xrotation Yrotation
            End Site
            {
              OFFSET 0 0 3.69452
            }
          }
        }
      }
    }
    JOINT RightUpLeg
    {
      OFFSET -9.2363 0 0
      CHANNELS 6 Xposition Yposition Zposition Zrotation Xrotation Yrotation
      JOINT RightLeg
      {
        OFFSET 0 -40.7061 0
        CHANNELS 6 Xposition Yposition Zposition Zrotation Xrotation Yrotation
        JOINT RightFoot
        {
          OFFSET 0 -40.9975 0
          CHANNELS 6 Xposition Yposition Zposition Zrotation Xrotation Yrotation
          JOINT RightToeBase
          {
            OFFSET 0 -6.00359 13.8545
            CHANNELS 6 Xposition Yposition Zposition Zrotation Xrotation Yrotation
            End Site
            {
              OFFSET 0 0 3.69452
            }
          }
        }
      }
    }
  }
}
MOTION
Frames:	5
Frame Time:	0.004
0 0 0 0 0 -0 -18.9209 81.6626 -187.55 -0.532186 1.6219 9.1166 0 7.57377 -2.84217e-014 -1.35159 -6.81611 0.202133 0 21.6353 0 0.724595 -5.85711 0.323275 -3.55271e-015 21.5464 1.95876 -3.48549 12.5739 4.32955 -7.10543e-015 12.9308 -1.84726 4.10794 22.6482 4.39113 3.70822 19.5981 -0.368577 16.6826 -0.701693 -9.7329 11.1726 0 2.84217e-014 -21.6333 7.2752 -2.16015 28.6421 0 2.84217e-014 3.82733 -3.71498 -0.109107 23.9346 -2.84217e-014 2.84217e-014 18.5694 -4.14846 -2.67861 -3.63664 19.5981 -0.368577 -17.7496 -1.02551 -5.61341 -11.1726 2.84217e-014 2.84217e-014 18.9337 3.40112 12.7033 -28.6421 0 -2.84217e-014 -1.03206 -1.21744 -4.19048 -23.9346 0 0 -21.9162 -0.58754 -3.49031 9.2363 0 0 -0.973241 -1.27021 -0.123579 0 -40.7061 -2.84217e-014 1.16513 4.78042 -0.169829 3.55271e-015 -40.9975 2.84217e-014 4.52884 -13.2135 -6.16959 1.77636e-015 -6.00359 13.8545 -1.49089e-015 1.59028e-015 3.97569e-016 -9.2363 -1.42109e-014 0 1.18221 1.95119 4.28755 3.55271e-015 -40.7061 0 3.20318 2.60424 0.079207 3.55271e-015 -40.9975 0 -14.3597 -11.6571 -13.3496 -3.55271e-015 -6.00359 13.8545 -2.23633e-016 0 -7.95139e-016 
0 0 0 0 0 -0 -18.9209 81.6626 -187.55 -0.53263 1.62183 9.1323 0 7.57377 0 -1.35911 -6.81611 0.202133 0 21.6353 0 0.770247 -5.87892 0.323287 -3.55271e-015 21.5464 1.95876 -3.48912 12.6206 4.33034 0 12.9308 -1.84726 4.08959 22.6379 4.3908 3.70822 19.5981 -0.368577 16.662 -0.663558 -9.75855 11.1726 0 0 -21.6371 7.28278 -2.13485 28.6421 0 0 3.82736 -3.69852 -0.109105 23.9346 -2.84217e-014 2.84217e-014 18.6038 -4.13317 -2.67856 -3.63664 19.5981 -0.368577 -17.7557 -0.972931 -5.61325 -11.1726 2.84217e-014 0 18.9169 3.35385 12.718 -28.6421 0 0 -1.00004 -1.23212 -4.21124 -23.9346 0 0 -22.1071 -0.58754 -3.49031 9.2363 -1.42109e-014 0 -0.978283 -1.27716 -0.118967 -3.55271e-015 -40.7061 2.84217e-014 1.17789 4.80257 -0.217983 3.55271e-015 -40.9975 2.84217e-014 4.49158 -13.2064 -6.15014 -1.77636e-015 -6.00359 13.8545 3.97569e-016 3.18055e-015 -0 -9.2363 0 0 1.18194 1.95117 4.29569 0 -40.7061 0 3.20394 2.63266 0.061896 0 -40.9975 2.84217e-014 -14.2996 -11.6809 -13.3631 0 -6.00359 13.8545 1.86361e-015 0 -1.98785e-016 
0 0 0 0 0 -0 -18.9209 81.6626 -187.55 -0.532944 1.62178 9.14338 3.55271e-015 7.57377 2.84217e-014 -1.36125 -6.81611 0.202133 0 21.6353 0 0.780033 -5.8591 0.323276 3.55271e-015 21.5464 1.95876 -3.48735 12.5917 4.32985 0 12.9308 -1.84726 4.10099 22.6401 4.39087 3.70822 19.5981 -0.368577 16.6879 -0.700032 -9.73097 11.1726 -2.84217e-014 0 -21.67 7.31194 -2.13033 28.6421 0 -2.84217e-014 3.82512 -3.68584 -0.118247 23.9346 0 0 18.6597 -4.12101 -2.67852 -3.63664 19.5981 -0.368577 -17.745 -0.9983 -5.65022 -11.1726 2.84217e-014 0 18.8962 3.38317 12.7501 -28.6421 2.84217e-014 0 -1.01001 -1.22284 -4.21287 -23.9346 0 2.84217e-014 -22.0019 -0.581347 -3.49031 9.2363 0 0 -0.983598 -1.2944 -0.10839 3.55271e-015 -40.7061 0 1.18703 4.82799 -0.177499 0 -40.9975 -2.84217e-014 4.60068 -13.2726 -6.19632 8.88178e-016 -6.00359 13.8545 -4.96962e-016 0 -3.97569e-016 -9.2363 1.42109e-014 0 1.18325 1.95127 4.25718 0 -40.7061 -2.84217e-014 3.2025 2.65046 0.092506 -7.10543e-015 -40.9975 2.84217e-014 -14.3472 -11.68 -13.3824 0 -6.00359 13.8545 1.36664e-015 3.18055e-015 -0 
0 0 0 0 0 -0 -18.9209 81.6626 -187.548 -0.532953 1.62178 9.14372 7.10543e-015 7.57377 0 -1.36273 -6.81611 0.202886 0 21.6353 0 0.790647 -5.86144 0.324751 -3.55271e-015 21.5464 1.95876 -3.47559 12.5996 4.32999 -7.10543e-015 12.9308 -1.84726 4.08377 22.6529 4.39128 3.70822 19.5981 -0.368577 16.6904 -0.681817 -9.74076 11.1726 0 0 -21.6673 7.30564 -2.11937 28.6421 0 0 3.80896 -3.67987 -0.122158 23.9346 0 0 18.6109 -4.1153 -2.68792 -3.63664 19.5981 -0.368577 -17.7345 -1.00346 -5.653 -11.1726 -2.84217e-014 0 18.8747 3.41868 12.7445 -28.6421 0 0 -1.00634 -1.24283 -4.20862 -23.9346 0 0 -22.0188 -0.602151 -3.48303 9.2363 0 2.84217e-014 -0.989371 -1.28955 -0.088849 7.10543e-015 -40.7061 -2.84217e-014 1.19909 4.82673 -0.226162 0 -40.9975 -2.84217e-014 4.54999 -13.2421 -6.17579 0 -6.00359 13.8545 -8.44835e-016 1.59028e-015 -3.97569e-016 -9.2363 0 0 1.18221 1.95119 4.28758 -7.10543e-015 -40.7061 0 3.20227 2.64483 0.097702 -7.10543e-015 -40.9975 0 -14.3575 -11.6722 -13.401 0 -6.00359 13.8545 2.73329e-015 0 7.95139e-016 
0 0 0 0 0 -0 -18.9209 81.6626 -187.545 -0.532916 1.62179 9.1424 0 7.57377 -2.84217e-014 -1.36484 -6.81611 0.199447 -3.55271e-015 21.6353 2.84217e-014 0.811134 -5.86407 0.322612 -1.06581e-014 21.5464 1.95876 -3.46536 12.6063 4.33462 3.55271e-015 12.9308 -1.84726 4.05295 22.6598 4.3915 3.70822 19.5981 -0.368577 16.6861 -0.667679 -9.73732 11.1726 0 2.84217e-014 -21.6761 7.33991 -2.10912 28.6421 0 2.84217e-014 3.81506 -3.69246 -0.123773 23.9346 0 0 18.6248 -4.12805 -2.68714 -3.63664 19.5981 -0.368577 -17.736 -0.99649 -5.65556 -11.1726 0 2.84217e-014 18.86 3.42414 12.7638 -28.6421 -2.84217e-014 0 -1.00231 -1.26245 -4.22908 -23.9346 0 0 -21.9905 -0.624666 -3.47243 9.2363 0 0 -0.987994 -1.28961 -0.106976 -3.55271e-015 -40.7061 0 1.18838 4.83378 -0.205299 0 -40.9975 2.84217e-014 4.56844 -13.2644 -6.17723 -1.77636e-015 -6.00359 13.8545 6.4605e-016 -1.59028e-015 -3.97569e-016 -9.2363 0 -2.84217e-014 1.18245 1.95121 4.28047 3.55271e-015 -40.7061 0 3.20274 2.66214 0.099972 3.55271e-015 -40.9975 -2.84217e-014 -14.3481 -11.6827 -13.3927 0 -6.00359 13.8545 1.49089e-015 -1.59028e-015 -3.97569e-016 
